<?xml version="1.0" encoding="utf-8"?>
<!-- Generator: Adobe Illustrator 21.0.2, SVG Export Plug-In . SVG Version: 6.00 Build 0)  -->
<svg version="1.1" id="Layer_1" xmlns="http://www.w3.org/2000/svg" xmlns:xlink="http://www.w3.org/1999/xlink" x="0px" y="0px"
	 viewBox="0 0 200 200" style="enable-background:new 0 0 200 200;" xml:space="preserve">
<style type="text/css">
	.st0{fill:none;stroke:#FFFFFF;stroke-width:6;stroke-miterlimit:10;}
</style>
<g>
	<path class="st0" d="M166.7,30.2c-0.9,0-1.4,0-1.8,0c-4.8,0.5-9.5,0.7-14.2,1.5c-9.7,1.6-19,4.7-27.7,9.3
		c-8.3,4.4-15.5,10.1-21.6,17.1C91.1,69.8,81,81.7,70.9,93.5c-0.6,0.7-1.2,1-2.2,1c-7.1-0.2-14.2-0.2-21.3-0.4c-1.1,0-2,0.3-2.7,1.2
		c-3.9,5-7.8,10-11.7,15c-1.2,1.5-1.1,1.9,0.8,2.3c5.5,1.2,11,2.4,16.6,3.5c1.6,0.3,2.6,0.8,2.7,2.5c0,0.5,0,1.1-0.2,1.5
		c-0.8,1.9-1.6,3.9-2.6,5.7c-0.9,1.7-0.9,3.4,0.2,4.9c2.2,2.9,4.3,5.8,6.7,8.4c2.7,2.9,5.6,5.5,9.1,7.3c1.4,0.7,2.8,0.9,4.3,0.1
		c2-1,4-1.9,6.1-2.8c1.9-0.8,3.6,0,4,2c1.2,5.7,2.4,11.5,3.6,17.2c0.4,1.8,0.8,2,2.3,0.8c4.9-3.9,9.9-7.8,14.9-11.6
		c1-0.8,1.4-1.7,1.3-2.9c-0.1-7-0.2-14-0.3-21c0-1.5,0.4-2.4,1.5-3.3c11.6-9.8,23.2-19.6,34.6-29.5c8.2-7.1,14.6-15.7,19.2-25.6
		c4.3-9.3,6.9-19.1,8.1-29.2C166.2,37.2,166.4,33.8,166.7,30.2z M66.1,153.9c-2.2-1.6-2.2-1.6-4.3-0.3c-0.3,0.2-0.6,0.4-0.9,0.6
		c-7.1,4-14.9,5.2-22.9,5.1c-0.2,0-0.3-0.1-0.7-0.2c0.1-2.3,0.1-4.6,0.4-6.9c0.6-6.2,2.1-12.2,5.6-17.5c1.2-1.9,1.2-2.3-0.6-3.9
		c-3.5,2.6-6.3,5.7-8.5,9.5c-4.8,8.5-6.2,17.8-6.1,27.4c0,1.1,0.6,1,1.4,1c7.6,0.1,15.1-0.8,22.2-3.7
		C57.5,162.6,62.4,159,66.1,153.9z"/>
	<path class="st0" d="M166.7,30.2c-0.3,3.6-0.4,7-0.8,10.4c-1.2,10.1-3.8,19.9-8.1,29.2c-4.6,9.9-10.9,18.5-19.2,25.6
		c-11.5,9.9-23,19.7-34.6,29.5c-1.1,0.9-1.6,1.8-1.5,3.3c0.2,7,0.2,14,0.3,21c0,1.3-0.3,2.1-1.3,2.9c-5,3.8-9.9,7.7-14.9,11.6
		c-1.5,1.2-1.9,1-2.3-0.8c-1.2-5.7-2.4-11.5-3.6-17.2c-0.4-1.9-2.1-2.8-4-2c-2,0.9-4.1,1.7-6.1,2.8c-1.5,0.8-2.9,0.6-4.3-0.1
		c-3.5-1.8-6.4-4.5-9.1-7.3c-2.4-2.6-4.6-5.5-6.7-8.4c-1.1-1.5-1.1-3.1-0.2-4.9c1-1.8,1.8-3.8,2.6-5.7c0.2-0.5,0.2-1,0.2-1.5
		c0-1.7-1.1-2.2-2.7-2.5c-5.5-1.1-11-2.3-16.6-3.5c-1.9-0.4-2-0.8-0.8-2.3c3.9-5,7.8-10,11.7-15c0.7-0.9,1.5-1.3,2.7-1.2
		c7.1,0.1,14.2,0.2,21.3,0.4c1,0,1.6-0.3,2.2-1C81,81.7,91.1,69.8,101.3,58.1c6.1-7,13.3-12.8,21.6-17.1c8.7-4.6,18-7.7,27.7-9.3
		c4.7-0.8,9.5-1,14.2-1.5C165.3,30.1,165.8,30.2,166.7,30.2z M124.5,83.3c6,0,11.1-5,11.1-11.1c0-6-5-11.1-11-11.1
		c-6.1,0-11.2,5.1-11.1,11.1C113.4,78.3,118.4,83.3,124.5,83.3z"/>
	<path class="st0" d="M66.1,153.9c-3.8,5.1-8.6,8.7-14.4,11c-7.1,2.8-14.6,3.8-22.2,3.7c-0.7,0-1.3,0-1.4-1
		c-0.1-9.6,1.2-18.9,6.1-27.4c2.1-3.8,5-6.9,8.5-9.5c1.7,1.7,1.8,2.1,0.6,3.9c-3.5,5.3-5,11.3-5.6,17.5c-0.2,2.3-0.2,4.6-0.4,6.9
		c0.3,0.1,0.5,0.2,0.7,0.2c8,0.1,15.8-1.1,22.9-5.1c0.3-0.2,0.6-0.4,0.9-0.6C63.9,152.3,63.9,152.3,66.1,153.9z"/>
	<path class="st0" d="M124.5,83.3c-6,0-11.1-5-11.1-11c0-6.1,5.1-11.2,11.1-11.1c6,0,11,5.1,11,11.1
		C135.5,78.3,130.5,83.3,124.5,83.3z"/>
</g>
</svg>
